# xmcd
#
# Track frame offsets:
# 150
# 28251
# 41211
# 60108
# 76473
# 91834
# 102038
# 123929
# 136589
# 153927
#
# Disc length: 2221 seconds
#
#
# Revision: 0
# Processed by: cddbd v1.5.2PL0 Copyright (c) Steve Scherf et al.
# Submitted via: FreeRIP 2.60 
#
DISCID=6e08ab0a
DTITLE=Frummox - Here To There
DYEAR=1970
DGENRE=
TTITLE0=Man With The Big Hat
TTITLE1=Kansas Legend
TTITLE2=Song For Stephen Stills
TTITLE3=Jake's Song
TTITLE4=Texas Trilogy - Daybreak
TTITLE5=Texas Trilogy - Trainride
TTITLE6=Texas Trilogy - Bosque Country Romance
TTITLE7=There You Go
TTITLE8=Weaving Is The Property Of Few These Days
TTITLE9=Lovin' Mind
EXTD=Frummox is Steve Frumholz and Charles Putnam Slater.\nVinyl disk was released around 1970.\nCD published by Smart Weed in the European Union.
EXTT0=
EXTT1=
EXTT2=
EXTT3=
EXTT4=
EXTT5=
EXTT6=
EXTT7=
EXTT8=
EXTT9=
PLAYORDER=
